<mxfile host="app.diagrams.net" modified="2024-02-27T07:22:58.628Z" agent="Mozilla/5.0 (Windows NT 10.0; Win64; x64) AppleWebKit/537.36 (KHTML, like Gecko) Chrome/122.0.0.0 Safari/537.36" version="23.1.7" etag="gMCF22rAwP1lrvFg9O8v" type="github">
  <diagram name="Page-1" id="FpH8N-pGR547o_TuYgQC">
    <mxGraphModel>
      <root>
        <mxCell id="0" />
        <mxCell id="1" parent="0" />
      </root>
    </mxGraphModel>
  </diagram>
</mxfile>
